<mxfile host="Electron" agent="Mozilla/5.0 (Windows NT 10.0; Win64; x64) AppleWebKit/537.36 (KHTML, like Gecko) draw.io/24.7.17 Chrome/128.0.6613.36 Electron/32.0.1 Safari/537.36" version="24.7.17">
  <diagram name="Page-1" id="WGmEbtBzu8gzEWu7FZJn">
    <mxGraphModel dx="1036" dy="1706" grid="1" gridSize="10" guides="1" tooltips="1" connect="1" arrows="1" fold="1" page="1" pageScale="1" pageWidth="850" pageHeight="1100" math="0" shadow="0">
      <root>
        <mxCell id="0" />
        <mxCell id="1" parent="0" />
        <mxCell id="69WwMVChP6z_j2u__Eiu-1" value="Student" style="swimlane;whiteSpace=wrap;html=1;startSize=20;" vertex="1" parent="1">
          <mxGeometry x="110" y="-540" width="270" height="780" as="geometry" />
        </mxCell>
        <mxCell id="69WwMVChP6z_j2u__Eiu-6" value="" style="ellipse;html=1;shape=endState;fillColor=#000000;strokeColor=#ff0000;" vertex="1" parent="69WwMVChP6z_j2u__Eiu-1">
          <mxGeometry x="85" y="30" width="30" height="30" as="geometry" />
        </mxCell>
        <mxCell id="69WwMVChP6z_j2u__Eiu-9" value="Fille the UOWD Registration Form" style="html=1;whiteSpace=wrap;" vertex="1" parent="69WwMVChP6z_j2u__Eiu-1">
          <mxGeometry x="50" y="142" width="110" height="50" as="geometry" />
        </mxCell>
        <mxCell id="69WwMVChP6z_j2u__Eiu-13" value="Registration Completed" style="html=1;whiteSpace=wrap;" vertex="1" parent="69WwMVChP6z_j2u__Eiu-1">
          <mxGeometry x="50" y="250" width="110" height="50" as="geometry" />
        </mxCell>
        <mxCell id="69WwMVChP6z_j2u__Eiu-8" value="" style="endArrow=open;endFill=1;endSize=12;html=1;rounded=0;exitX=0.5;exitY=1;exitDx=0;exitDy=0;entryX=0.444;entryY=-0.012;entryDx=0;entryDy=0;entryPerimeter=0;" edge="1" parent="69WwMVChP6z_j2u__Eiu-1" source="69WwMVChP6z_j2u__Eiu-6" target="69WwMVChP6z_j2u__Eiu-9">
          <mxGeometry width="160" relative="1" as="geometry">
            <mxPoint x="290" y="120" as="sourcePoint" />
            <mxPoint x="100" y="110" as="targetPoint" />
          </mxGeometry>
        </mxCell>
        <mxCell id="69WwMVChP6z_j2u__Eiu-26" value="" style="endArrow=open;endFill=1;endSize=12;html=1;rounded=0;entryX=0;entryY=0.5;entryDx=0;entryDy=0;" edge="1" parent="69WwMVChP6z_j2u__Eiu-1" target="69WwMVChP6z_j2u__Eiu-11">
          <mxGeometry width="160" relative="1" as="geometry">
            <mxPoint x="160" y="166.5" as="sourcePoint" />
            <mxPoint x="320" y="166.5" as="targetPoint" />
          </mxGeometry>
        </mxCell>
        <mxCell id="69WwMVChP6z_j2u__Eiu-38" value="Enroll into Couse:&lt;div&gt;CSIT114&lt;/div&gt;" style="html=1;whiteSpace=wrap;" vertex="1" parent="69WwMVChP6z_j2u__Eiu-1">
          <mxGeometry x="50" y="410" width="110" height="60" as="geometry" />
        </mxCell>
        <mxCell id="69WwMVChP6z_j2u__Eiu-40" value="" style="endArrow=open;endFill=1;endSize=12;html=1;rounded=0;exitX=0.356;exitY=1.057;exitDx=0;exitDy=0;exitPerimeter=0;" edge="1" parent="69WwMVChP6z_j2u__Eiu-1" source="69WwMVChP6z_j2u__Eiu-38">
          <mxGeometry width="160" relative="1" as="geometry">
            <mxPoint x="85" y="510" as="sourcePoint" />
            <mxPoint x="290" y="510" as="targetPoint" />
            <Array as="points">
              <mxPoint x="89" y="510" />
            </Array>
          </mxGeometry>
        </mxCell>
        <mxCell id="69WwMVChP6z_j2u__Eiu-43" value="Provide Payment" style="html=1;whiteSpace=wrap;" vertex="1" parent="69WwMVChP6z_j2u__Eiu-1">
          <mxGeometry x="50" y="540" width="110" height="50" as="geometry" />
        </mxCell>
        <mxCell id="69WwMVChP6z_j2u__Eiu-31" value="Verify Document&amp;nbsp;" style="html=1;whiteSpace=wrap;" vertex="1" parent="69WwMVChP6z_j2u__Eiu-1">
          <mxGeometry x="50" y="340" width="110" height="50" as="geometry" />
        </mxCell>
        <mxCell id="69WwMVChP6z_j2u__Eiu-30" style="edgeStyle=orthogonalEdgeStyle;rounded=0;orthogonalLoop=1;jettySize=auto;html=1;exitX=0.5;exitY=1;exitDx=0;exitDy=0;" edge="1" parent="69WwMVChP6z_j2u__Eiu-1" source="69WwMVChP6z_j2u__Eiu-13" target="69WwMVChP6z_j2u__Eiu-31">
          <mxGeometry relative="1" as="geometry">
            <mxPoint x="105" y="340" as="targetPoint" />
          </mxGeometry>
        </mxCell>
        <mxCell id="69WwMVChP6z_j2u__Eiu-50" value="" style="ellipse;html=1;shape=endState;fillColor=#000000;strokeColor=#ff0000;" vertex="1" parent="69WwMVChP6z_j2u__Eiu-1">
          <mxGeometry x="130" y="675" width="30" height="30" as="geometry" />
        </mxCell>
        <mxCell id="69WwMVChP6z_j2u__Eiu-2" value="UOWD" style="swimlane;html=1;whiteSpace=wrap;fontFamily=Helvetica;" vertex="1" parent="1">
          <mxGeometry x="380" y="-540" width="220" height="780" as="geometry">
            <mxRectangle x="90" y="110" width="140" height="30" as="alternateBounds" />
          </mxGeometry>
        </mxCell>
        <mxCell id="69WwMVChP6z_j2u__Eiu-27" style="edgeStyle=orthogonalEdgeStyle;rounded=0;orthogonalLoop=1;jettySize=auto;html=1;exitX=0.5;exitY=1;exitDx=0;exitDy=0;" edge="1" parent="69WwMVChP6z_j2u__Eiu-2" source="69WwMVChP6z_j2u__Eiu-11" target="69WwMVChP6z_j2u__Eiu-18">
          <mxGeometry relative="1" as="geometry" />
        </mxCell>
        <mxCell id="69WwMVChP6z_j2u__Eiu-11" value="Registration Form&amp;nbsp;&lt;div&gt;processed&lt;/div&gt;" style="html=1;whiteSpace=wrap;" vertex="1" parent="69WwMVChP6z_j2u__Eiu-2">
          <mxGeometry x="20" y="140" width="110" height="50" as="geometry" />
        </mxCell>
        <mxCell id="69WwMVChP6z_j2u__Eiu-18" value="" style="rhombus;whiteSpace=wrap;html=1;fontColor=#000000;fillColor=#ffffc0;strokeColor=#ff0000;" vertex="1" parent="69WwMVChP6z_j2u__Eiu-2">
          <mxGeometry x="35" y="220" width="80" height="40" as="geometry" />
        </mxCell>
        <mxCell id="69WwMVChP6z_j2u__Eiu-29" value="incorrect" style="html=1;verticalAlign=bottom;startArrow=oval;startFill=1;endArrow=block;startSize=8;curved=0;rounded=0;" edge="1" parent="69WwMVChP6z_j2u__Eiu-2">
          <mxGeometry x="-0.4545" width="60" relative="1" as="geometry">
            <mxPoint x="110" y="239.5" as="sourcePoint" />
            <mxPoint x="-140" y="140" as="targetPoint" />
            <Array as="points">
              <mxPoint x="180" y="240" />
              <mxPoint x="180" y="180" />
              <mxPoint x="180" y="110" />
              <mxPoint x="-140" y="110" />
            </Array>
            <mxPoint as="offset" />
          </mxGeometry>
        </mxCell>
        <mxCell id="69WwMVChP6z_j2u__Eiu-39" style="edgeStyle=orthogonalEdgeStyle;rounded=0;orthogonalLoop=1;jettySize=auto;html=1;exitX=0.5;exitY=1;exitDx=0;exitDy=0;entryX=0.5;entryY=0;entryDx=0;entryDy=0;" edge="1" parent="69WwMVChP6z_j2u__Eiu-2" source="69WwMVChP6z_j2u__Eiu-33" target="69WwMVChP6z_j2u__Eiu-34">
          <mxGeometry relative="1" as="geometry" />
        </mxCell>
        <mxCell id="69WwMVChP6z_j2u__Eiu-33" value="Process Veritfication" style="html=1;whiteSpace=wrap;" vertex="1" parent="69WwMVChP6z_j2u__Eiu-2">
          <mxGeometry x="20" y="340" width="110" height="50" as="geometry" />
        </mxCell>
        <mxCell id="69WwMVChP6z_j2u__Eiu-34" value="" style="rhombus;whiteSpace=wrap;html=1;fontColor=#000000;fillColor=#ffffc0;strokeColor=#ff0000;" vertex="1" parent="69WwMVChP6z_j2u__Eiu-2">
          <mxGeometry x="40" y="410" width="80" height="40" as="geometry" />
        </mxCell>
        <mxCell id="69WwMVChP6z_j2u__Eiu-36" value="correct" style="edgeStyle=orthogonalEdgeStyle;html=1;align=left;verticalAlign=top;endArrow=open;endSize=8;strokeColor=#ff0000;rounded=0;" edge="1" source="69WwMVChP6z_j2u__Eiu-34" parent="69WwMVChP6z_j2u__Eiu-2">
          <mxGeometry x="0.2" y="-10" relative="1" as="geometry">
            <mxPoint x="-110" y="430" as="targetPoint" />
            <Array as="points">
              <mxPoint y="430" />
              <mxPoint y="430" />
            </Array>
            <mxPoint as="offset" />
          </mxGeometry>
        </mxCell>
        <mxCell id="69WwMVChP6z_j2u__Eiu-41" value="Course selected" style="html=1;whiteSpace=wrap;" vertex="1" parent="69WwMVChP6z_j2u__Eiu-2">
          <mxGeometry x="20" y="490" width="110" height="50" as="geometry" />
        </mxCell>
        <mxCell id="69WwMVChP6z_j2u__Eiu-45" value="Payment proccessed" style="html=1;whiteSpace=wrap;" vertex="1" parent="69WwMVChP6z_j2u__Eiu-2">
          <mxGeometry x="20" y="590" width="110" height="50" as="geometry" />
        </mxCell>
        <mxCell id="69WwMVChP6z_j2u__Eiu-22" value="correct" style="html=1;verticalAlign=bottom;startArrow=oval;startFill=1;endArrow=block;startSize=8;curved=0;rounded=0;exitX=0.5;exitY=1;exitDx=0;exitDy=0;" edge="1" parent="1" source="69WwMVChP6z_j2u__Eiu-18">
          <mxGeometry width="60" relative="1" as="geometry">
            <mxPoint x="450" y="-250" as="sourcePoint" />
            <mxPoint x="270" y="-260" as="targetPoint" />
            <Array as="points">
              <mxPoint x="455" y="-280" />
              <mxPoint x="455" y="-260" />
              <mxPoint x="380" y="-260" />
              <mxPoint x="330" y="-260" />
              <mxPoint x="300" y="-260" />
              <mxPoint x="270" y="-260" />
            </Array>
          </mxGeometry>
        </mxCell>
        <mxCell id="69WwMVChP6z_j2u__Eiu-35" value="incorrect" style="edgeStyle=orthogonalEdgeStyle;html=1;align=left;verticalAlign=bottom;endArrow=open;endSize=8;strokeColor=#ff0000;rounded=0;entryX=0.75;entryY=0;entryDx=0;entryDy=0;exitX=1;exitY=0.5;exitDx=0;exitDy=0;" edge="1" source="69WwMVChP6z_j2u__Eiu-34" parent="1" target="69WwMVChP6z_j2u__Eiu-31">
          <mxGeometry x="-0.602" y="20" relative="1" as="geometry">
            <mxPoint x="600" y="-130" as="targetPoint" />
            <Array as="points">
              <mxPoint x="560" y="-110" />
              <mxPoint x="560" y="-220" />
              <mxPoint x="243" y="-220" />
            </Array>
            <mxPoint as="offset" />
          </mxGeometry>
        </mxCell>
        <mxCell id="69WwMVChP6z_j2u__Eiu-42" style="edgeStyle=orthogonalEdgeStyle;rounded=0;orthogonalLoop=1;jettySize=auto;html=1;exitX=0.5;exitY=1;exitDx=0;exitDy=0;" edge="1" parent="1" source="69WwMVChP6z_j2u__Eiu-41" target="69WwMVChP6z_j2u__Eiu-43">
          <mxGeometry relative="1" as="geometry">
            <mxPoint x="280" y="50" as="targetPoint" />
          </mxGeometry>
        </mxCell>
        <mxCell id="69WwMVChP6z_j2u__Eiu-32" style="edgeStyle=orthogonalEdgeStyle;rounded=0;orthogonalLoop=1;jettySize=auto;html=1;exitX=1;exitY=0.5;exitDx=0;exitDy=0;entryX=0;entryY=0.5;entryDx=0;entryDy=0;" edge="1" parent="1" source="69WwMVChP6z_j2u__Eiu-31" target="69WwMVChP6z_j2u__Eiu-33">
          <mxGeometry relative="1" as="geometry">
            <mxPoint x="400" y="-200" as="targetPoint" />
            <Array as="points">
              <mxPoint x="370" y="-175" />
              <mxPoint x="370" y="-175" />
            </Array>
          </mxGeometry>
        </mxCell>
        <mxCell id="69WwMVChP6z_j2u__Eiu-44" style="edgeStyle=orthogonalEdgeStyle;rounded=0;orthogonalLoop=1;jettySize=auto;html=1;exitX=0.5;exitY=1;exitDx=0;exitDy=0;" edge="1" parent="1" source="69WwMVChP6z_j2u__Eiu-43" target="69WwMVChP6z_j2u__Eiu-45">
          <mxGeometry relative="1" as="geometry">
            <mxPoint x="400" y="60" as="targetPoint" />
          </mxGeometry>
        </mxCell>
        <mxCell id="69WwMVChP6z_j2u__Eiu-49" style="edgeStyle=orthogonalEdgeStyle;rounded=0;orthogonalLoop=1;jettySize=auto;html=1;exitX=0;exitY=0.5;exitDx=0;exitDy=0;" edge="1" parent="1" source="69WwMVChP6z_j2u__Eiu-48">
          <mxGeometry relative="1" as="geometry">
            <mxPoint x="270" y="150" as="targetPoint" />
          </mxGeometry>
        </mxCell>
        <mxCell id="69WwMVChP6z_j2u__Eiu-48" value="Enrollement to CSIT144 completed" style="html=1;whiteSpace=wrap;" vertex="1" parent="1">
          <mxGeometry x="400" y="125" width="110" height="50" as="geometry" />
        </mxCell>
        <mxCell id="69WwMVChP6z_j2u__Eiu-47" style="edgeStyle=orthogonalEdgeStyle;rounded=0;orthogonalLoop=1;jettySize=auto;html=1;exitX=0.5;exitY=1;exitDx=0;exitDy=0;" edge="1" parent="1" source="69WwMVChP6z_j2u__Eiu-45" target="69WwMVChP6z_j2u__Eiu-48">
          <mxGeometry relative="1" as="geometry">
            <mxPoint x="455" y="150" as="targetPoint" />
          </mxGeometry>
        </mxCell>
      </root>
    </mxGraphModel>
  </diagram>
</mxfile>
